<svg width="24" height="24" viewBox="0 0 24 24" fill="none" xmlns="http://www.w3.org/2000/svg">
<g filter="url(#filter0_d_1_1600)">
<path fill-rule="evenodd" clip-rule="evenodd" d="M6.83003 16.473C6.55303 16.097 6.21503 15.328 5.61403 14.394C5.27403 13.866 4.42903 12.871 4.17803 12.366C3.96003 11.92 3.98303 11.72 4.03503 11.35C4.12703 10.692 4.75703 10.18 5.42903 10.248C5.93703 10.3 6.36803 10.659 6.75503 10.998C6.98903 11.203 7.27703 11.6 7.45003 11.824C7.61003 12.03 7.64903 12.114 7.81903 12.358C8.04403 12.68 8.11403 12.838 8.02903 12.485C7.95903 11.965 7.84503 11.077 7.68103 10.292C7.55603 9.69698 7.52503 9.60398 7.40603 9.14698C7.28003 8.66098 7.21603 8.31998 7.09603 7.80498C7.01503 7.43998 6.86603 6.69498 6.82603 6.27498C6.77103 5.70198 6.74203 4.76798 7.08503 4.33798C7.35403 4.00198 7.97103 3.89998 8.35403 4.10798C8.85503 4.37798 9.14003 5.15798 9.27003 5.46998C9.50403 6.02998 9.64903 6.67598 9.77503 7.52498C9.93503 8.60498 10.231 10.105 10.241 10.42C10.264 10.034 10.174 9.21998 10.237 8.84798C10.293 8.51198 10.557 8.12098 10.888 8.01498C11.168 7.92598 11.496 7.89398 11.784 7.95798C12.091 8.02498 12.414 8.25898 12.534 8.47998C12.888 9.13398 12.895 10.47 12.91 10.4C12.994 10.005 12.98 9.11098 13.188 8.73998C13.325 8.49398 13.674 8.27298 13.86 8.23698C14.147 8.18298 14.5 8.16698 14.803 8.22898C15.047 8.27998 15.376 8.59098 15.465 8.73898C15.679 9.09898 15.8 10.119 15.836 10.477C15.851 10.624 15.909 10.066 16.123 9.70598C16.52 9.03598 17.926 8.90598 17.98 10.376C18.004 11.06 18 11.029 18 11.49C18 12.032 17.988 12.358 17.96 12.75C17.93 13.169 17.846 14.116 17.724 14.575C17.64 14.891 17.361 15.6 17.086 16.025C17.086 16.025 16.035 17.335 15.92 17.925C15.805 18.515 15.843 18.519 15.82 18.937C15.798 19.354 15.939 19.903 15.939 19.903C15.939 19.903 15.154 20.012 14.732 19.94C14.349 19.874 13.875 19.058 13.753 18.809C13.585 18.465 13.226 18.531 13.086 18.785C12.866 19.186 12.392 19.906 12.057 19.951C11.404 20.039 10.047 19.984 8.98703 19.972C8.98703 19.972 9.16703 18.912 8.76403 18.549C8.46603 18.278 7.95203 17.727 7.64403 17.439L6.83103 16.473H6.83003Z" fill="white"/>
<path fill-rule="evenodd" clip-rule="evenodd" d="M6.83003 16.473C6.55303 16.097 6.21503 15.328 5.61403 14.394C5.27403 13.866 4.42903 12.871 4.17803 12.366C3.96003 11.92 3.98303 11.72 4.03503 11.35C4.12703 10.692 4.75703 10.18 5.42903 10.248C5.93703 10.3 6.36803 10.659 6.75503 10.998C6.98903 11.203 7.27703 11.6 7.45003 11.824C7.61003 12.03 7.64903 12.114 7.81903 12.358C8.04403 12.68 8.11403 12.838 8.02903 12.485C7.95903 11.965 7.84503 11.077 7.68103 10.292C7.55603 9.69698 7.52503 9.60398 7.40603 9.14698C7.28003 8.66098 7.21603 8.31998 7.09603 7.80498C7.01503 7.43998 6.86603 6.69498 6.82603 6.27498C6.77103 5.70198 6.74203 4.76798 7.08503 4.33798C7.35403 4.00198 7.97103 3.89998 8.35403 4.10798C8.85503 4.37798 9.14003 5.15798 9.27003 5.46998C9.50403 6.02998 9.64903 6.67598 9.77503 7.52498C9.93503 8.60498 10.231 10.105 10.241 10.42C10.264 10.034 10.174 9.21998 10.237 8.84798C10.293 8.51198 10.557 8.12098 10.888 8.01498C11.168 7.92598 11.496 7.89398 11.784 7.95798C12.091 8.02498 12.414 8.25898 12.534 8.47998C12.888 9.13398 12.895 10.47 12.91 10.4C12.994 10.005 12.98 9.11098 13.188 8.73998C13.325 8.49398 13.674 8.27298 13.86 8.23698C14.147 8.18298 14.5 8.16698 14.803 8.22898C15.047 8.27998 15.376 8.59098 15.465 8.73898C15.679 9.09898 15.8 10.119 15.836 10.477C15.851 10.624 15.909 10.066 16.123 9.70598C16.52 9.03598 17.926 8.90598 17.98 10.376C18.004 11.06 18 11.029 18 11.49C18 12.032 17.988 12.358 17.96 12.75C17.93 13.169 17.846 14.116 17.724 14.575C17.64 14.891 17.361 15.6 17.086 16.025C17.086 16.025 16.035 17.335 15.92 17.925C15.805 18.515 15.843 18.519 15.82 18.937C15.798 19.354 15.939 19.903 15.939 19.903C15.939 19.903 15.154 20.012 14.732 19.94C14.349 19.874 13.875 19.058 13.753 18.809C13.585 18.465 13.226 18.531 13.086 18.785C12.866 19.186 12.392 19.906 12.057 19.951C11.404 20.039 10.047 19.984 8.98703 19.972C8.98703 19.972 9.16703 18.912 8.76403 18.549C8.46603 18.278 7.95203 17.727 7.64403 17.439L6.83103 16.473H6.83003Z" stroke="black" stroke-width="0.75" stroke-linecap="round" stroke-linejoin="round"/>
</g>
<path fill-rule="evenodd" clip-rule="evenodd" d="M10.875 13.5C10.875 13.4005 10.8355 13.3052 10.7652 13.2348C10.6948 13.1645 10.5995 13.125 10.5 13.125C10.4005 13.125 10.3052 13.1645 10.2348 13.2348C10.1645 13.3052 10.125 13.4005 10.125 13.5V16.5C10.125 16.5995 10.1645 16.6948 10.2348 16.7652C10.3052 16.8355 10.4005 16.875 10.5 16.875C10.5995 16.875 10.6948 16.8355 10.7652 16.7652C10.8355 16.6948 10.875 16.5995 10.875 16.5V13.5ZM12.5 13.125C12.707 13.125 12.875 13.293 12.875 13.5V16.5C12.875 16.5995 12.8355 16.6948 12.7652 16.7652C12.6948 16.8355 12.5995 16.875 12.5 16.875C12.4005 16.875 12.3052 16.8355 12.2348 16.7652C12.1645 16.6948 12.125 16.5995 12.125 16.5V13.5C12.125 13.293 12.293 13.125 12.5 13.125ZM14.5 13.125C14.707 13.125 14.875 13.293 14.875 13.5V16.5C14.875 16.5995 14.8355 16.6948 14.7652 16.7652C14.6948 16.8355 14.5995 16.875 14.5 16.875C14.4005 16.875 14.3052 16.8355 14.2348 16.7652C14.1645 16.6948 14.125 16.5995 14.125 16.5V13.5C14.125 13.293 14.293 13.125 14.5 13.125Z" fill="black"/>
<defs>
<filter id="filter0_d_1_1600" x="1.625" y="2.62531" width="18.7502" height="20.7497" filterUnits="userSpaceOnUse" color-interpolation-filters="sRGB">
<feFlood flood-opacity="0" result="BackgroundImageFix"/>
<feColorMatrix in="SourceAlpha" type="matrix" values="0 0 0 0 0 0 0 0 0 0 0 0 0 0 0 0 0 0 127 0" result="hardAlpha"/>
<feOffset dy="1"/>
<feGaussianBlur stdDeviation="1"/>
<feColorMatrix type="matrix" values="0 0 0 0 0 0 0 0 0 0 0 0 0 0 0 0 0 0 0.24 0"/>
<feBlend mode="normal" in2="BackgroundImageFix" result="effect1_dropShadow_1_1600"/>
<feBlend mode="normal" in="SourceGraphic" in2="effect1_dropShadow_1_1600" result="shape"/>
</filter>
</defs>
</svg>
